<?xml version="1.0" encoding="utf-8"?>
<!-- Generator: Adobe Illustrator 24.2.0, SVG Export Plug-In . SVG Version: 6.00 Build 0)  -->
<svg version="1.1" id="Layer_1" xmlns="http://www.w3.org/2000/svg" xmlns:xlink="http://www.w3.org/1999/xlink" x="0px" y="0px"
	 viewBox="0 0 1000 1000" style="enable-background:new 0 0 1000 1000;" xml:space="preserve">
<style type="text/css">
	.st0{fill:#FEC24B;}
	.st1{fill:#F3BD63;}
	.st2{fill:#F58220;}
	.st3{fill:#FCE069;}
	.st4{fill:#FCCB40;}
	.st5{fill:#EEAC38;}
	.st6{fill-rule:evenodd;clip-rule:evenodd;fill:#767676;}
</style>
<g>
	<path class="st0" d="M174.6,734.9l4.6-6.5l219-415.5l0.4-4.4L302,127.1c-8.2-15.3-30.8-11.3-33.5,5.7L174.6,734.9z"/>
	<path class="st1" d="M469,445.8l71.9-73.5L469,235c-6.9-13-26-13-32.7,0L398,308.3v6.3L469,445.8z"/>
	<polygon class="st2" points="174.6,734.9 176.7,732.8 184.3,729.7 464.6,450.6 468,440.9 398.2,307.7 	"/>
	<path class="st3" d="M659.6,686.7l67.8,33.5l2.1,1l-4.7-28.8l-2.1-1l-63.1-31.3l-73.4,37.3v-37.7l73.4-37.1l56.5,27.9l2.1,1
		l-17.4-107l-41.7-256.3c-2.3-14-19.5-19.5-29.3-9.4l-90.3,90.6L468,440.9l-1,1L176.7,732.8l-0.1,0.1v0l-2,2l252.3,140.8
		c1.4,0.8,2.9,1.6,4.4,2.2c0.6,0.3,1.1,0.5,1.7,0.7c14.5,5.9,31.1,4.9,45.1-3l78.2-43.6l103.5-57.7v-13.7l21.4-10l7.4,3.4h0l1.7,0.8
		l2.4,1.1l14.6-8.2l-2.3-1.2l-1.6-0.8l-43.7-21.7l-73.4,37.3v-37.7L659.6,686.7z"/>
	<path class="st4" d="M703.3,745.9l1.6,0.8l-14.7,8.2l-1.7-0.8h0l-7.4-3.4l-21.4,10v11.2l-105.3,58.7l-76.8,42.8
		c-15.9,8.8-35.2,8.8-50.9,0L177.4,734.1l0.5-0.5l2.1-2.1l0,0l286.4-286l1.6-1.6l72.5-72.4l90.7-90.6c9.9-9.8,24.1-4.2,26.4,9.6
		L698.8,544l17.3,106.4l-56.5-27.9l-73.4,37.1v37.7l73.4-37.3l63.1,31.3l4.7,28.9l-67.8-33.5l-73.4,37.2v37.7l73.4-37.3L703.3,745.9
		z"/>
	<path class="st5" d="M553.2,829.6l106.5-59.4v4.1l-103.5,57.7L478,875.7c-13.9,7.7-30.5,8.7-45.1,3c-0.6-0.2-1.1-0.5-1.7-0.7
		c-1.6-0.7-3.1-1.4-4.6-2.2L174.4,734.9l0.3-0.3l0.2-0.2l0.3-0.3l1.4-1.4l0.1,0.1v0l1.2,0.7l248.8,138c15.9,8.8,35.4,8.8,51.3,0
		L553.2,829.6z"/>
	<polygon class="st5" points="707.2,747.9 692.6,756 690.2,754.9 688.6,754.1 703.3,745.9 704.9,746.7 	"/>
	<path class="st6" d="M700.7,544.5c-0.6-0.2-1.3-0.3-1.9-0.5c-12.2-2.9-25-4.4-38.1-4.4c-91.1,0-164.9,73.8-164.9,164.9
		c0,50,22.3,94.9,57.5,125.1c0.4,0.4,0.8,0.7,1.2,1c0.6,0.5,1.2,1,1.8,1.5c28.5,23.3,64.8,37.3,104.5,37.3
		c91.1,0,164.9-73.8,164.9-164.9C825.6,627.2,772.4,562.4,700.7,544.5z M659.7,796.4v-35.7l21.4-10l7.4,3.4h0l1.7,0.8l2.4,1.1
		l26.1,12L659.7,796.4z M734.9,761.5l-27.6-13.7l-2.3-1.2l-1.6-0.8l-43.7-21.7l-73.4,37.3v-37.7l73.4-37.2l67.8,33.5l2.1,1l5.4,2.7
		V761.5z M734.9,697.4l-10.1-5l-2.1-1l-63.1-31.3l-73.4,37.3v-37.7l73.4-37.1l56.5,27.9l2.1,1l16.8,8.3V697.4z"/>
</g>
</svg>
